<svg xmlns="http://www.w3.org/2000/svg" width="512" height="512" viewBox="0 0 512 512">
  <defs>
    <linearGradient id="bg" x1="0" y1="0" x2="1" y2="1">
      <stop offset="0%" stop-color="#0d9488"/>
      <stop offset="100%" stop-color="#22c55e"/>
    </linearGradient>
  </defs>
  <rect width="512" height="512" rx="96" fill="url(#bg)"/>
  <g transform="translate(106,106) scale(1.17)">
    <path d="M128 32c-35.3 0-64 28.7-64 64v320c0 35.3 28.7 64 64 64H384c35.3 0 64-28.7 64-64V96c0-35.3-28.7-64-64-64H128zM96 96c0-17.7 14.3-32 32-32h64v96l48-32 48 32V64h64c17.7 0 32 14.3 32 32v320c0 17.7-14.3 32-32 32H128c-17.7 0-32-14.3-32-32V96z" fill="white" fill-opacity="0.95"/>
  </g>
</svg>
